:FULLY-SPECIFIED
:FORCE-ALL-JOINTS-BE-3DOF
:DEGREES
216
root 0.728585 17.2878 12.8411 0.420665 18.0453 -2.00785
lfemur -15.1711 -3.39293 -17.5276
ltibia 51.2721 0 0
lfoot 9.69136 -8.58093 -1.0126
ltoes -5.08726 0 0
rfemur -8.15391 5.05678 27.1754
rtibia 24.5797 0 0
rfoot -7.6968 -4.19599 -0.0476789
rtoes 8.64003 0 0
lowerback 6.46276 -0.370642 0.501333
upperback 0.200215 -0.330262 3.44686
thorax -3.2795 -0.147269 3.35305
lowerneck -15.6674 -3.72504 -9.41302
upperneck 23.2998 -3.67533 3.96461
head 10.3034 -2.0457 2.49168
lclavicle 7.37987e-14 -1.96399e-14 -2.35711e-30
lhumerus -31.8704 10.7984 83.544
lradius 31.6105 0 0
lwrist -7.74236 0 0
lhand -11.9882 21.5245 0.0356778
lfingers 7.12502 0 0
lthumb 14.0682 51.0251 0.0336442
rclavicle 7.37987e-14 -1.96399e-14 -2.35711e-30
rhumerus -36.2418 -19.771 -73.0061
rradius 27.1245 0 0
rwrist 10.9582 0 0
rhand -17.0803 12.9269 0.00424385
rfingers 7.12502 0 0
rthumb 9.15775 -16.8529 0.0043149
217
root 0.781039 17.2992 13.0335 0.322651 17.8775 -2.27135
lfemur -16.3977 -3.04972 -17.5222
ltibia 52.898 0 0
lfoot 7.54161 -8.53246 -0.770121
ltoes -8.37864 0 0
rfemur -7.29666 5.00267 27.5155
rtibia 24.6482 0 0
rfoot -7.74614 -3.75436 -0.0439292
rtoes 6.85638 0 0
lowerback 6.22369 -0.266264 0.634572
upperback 0.353139 -0.18647 3.58045
thorax -3.00272 -0.0802559 3.38714
lowerneck -15.7531 -3.82097 -9.76263
upperneck 23.2946 -3.76676 4.19495
head 10.3382 -2.09158 2.61871
lclavicle 2.23683e-14 -1.9958e-14 8.13222e-30
lhumerus -31.6126 10.8774 83.8
lradius 30.9837 0 0
lwrist -7.98305 0 0
lhand -16.0085 30.5402 -0.0640664
lfingers 7.12502 0 0
lthumb 10.1904 60.244 -0.0673978
rclavicle 2.23683e-14 -1.9958e-14 8.13222e-30
rhumerus -35.7252 -19.1113 -73.3881
rradius 27.3798 0 0
rwrist 10.6041 0 0
rhand -17.1595 12.874 0.00237987
rfingers 7.12502 0 0
rthumb 9.08137 -16.9088 0.00256437
218
root 0.828127 17.3107 13.2215 0.289672 17.5123 -2.43906
lfemur -17.6772 -2.5653 -17.4854
ltibia 54.3215 0 0
lfoot 5.88332 -8.46601 -0.539334
ltoes -9.74964 0 0
rfemur -6.59048 4.84062 27.761
rtibia 24.8105 0 0
rfoot -7.61006 -3.25876 -0.036231
rtoes 3.48669 0 0
lowerback 6.12414 -0.0440305 0.825149
upperback 0.404075 0.116921 3.53112
thorax -2.91781 0.0677011 3.1964
lowerneck -15.8835 -3.90558 -9.85975
upperneck 23.4465 -3.90465 4.41513
head 10.4353 -2.13854 2.69549
lclavicle -6.96418e-14 3.10104e-15 3.85504e-31
lhumerus -31.4911 10.4172 83.9869
lradius 30.5291 0 0
lwrist -7.86461 0 0
lhand -14.5307 28.1683 -0.0109266
lfingers 7.12502 0 0
lthumb 11.6166 57.8114 -0.0135903
rclavicle -6.96418e-14 3.10104e-15 3.85504e-31
rhumerus -35.6784 -18.899 -73.7032
rradius 27.9464 0 0
rwrist 10.3155 0 0
rhand -16.8777 12.7627 6.23167e-05
rfingers 7.12502 0 0
rthumb 9.35331 -17.0087 0.000234203
219
root 0.871773 17.3277 13.4063 0.154846 17.0146 -2.83278
lfemur -19.0043 -2.23081 -17.0782
ltibia 55.553 0 0
lfoot 4.63352 -8.00611 -0.339597
ltoes -9.14012 0 0
rfemur -6.05581 4.72803 28.1971
rtibia 25.1142 0 0
rfoot -7.22896 -2.7143 -0.0277475
rtoes -0.13333 0 0
lowerback 6.11237 0.177814 1.22109
upperback 0.300811 0.443367 3.52381
thorax -3.05205 0.227353 2.93547
lowerneck -15.7152 -3.89908 -9.65537
upperneck 23.544 -3.94046 4.29896
head 10.4335 -2.15292 2.61723
lclavicle -1.87205e-14 -2.5842e-14 -9.88455e-32
lhumerus -31.7395 10.0645 84.087
lradius 30.2388 0 0
lwrist -7.60734 0 0
lhand -14.448 27.4833 -0.000248601
lfingers 7.12502 0 0
lthumb 11.6962 57.1204 -0.0036196
rclavicle -1.87205e-14 -2.5842e-14 -9.88455e-32
rhumerus -36.0045 -18.6704 -73.8624
rradius 28.752 0 0
rwrist 10.2226 0 0
rhand -16.8027 12.5612 -0.00021611
rfingers 7.12502 0 0
rthumb 9.42568 -17.2074 -0.000114675
